<svg width="424" height="206" viewBox="0 0 424 206" fill="none" xmlns="http://www.w3.org/2000/svg">
<path d="M424 1.5625H0V3.5625H424V1.5625Z" fill="#EEEEEE"/>
<path d="M424 41.5625H0V43.5625H424V41.5625Z" fill="#EEEEEE"/>
<path d="M424 81.5625H0V83.5625H424V81.5625Z" fill="#EEEEEE"/>
<path d="M424 121.562H0V125.562H424V121.562Z" fill="#EEEEEE"/>
<path d="M424 163.562H0V165.562H424V163.562Z" fill="#EEEEEE"/>
<path d="M424 203.562H0V205.562H424V203.562Z" fill="#EEEEEE"/>
<path d="M322 121.562H270V190.562H322V121.562Z" fill="#1278A1"/>
<path d="M322 94.5625H270V121.562H322V94.5625Z" fill="#5DD5F6"/>
<path d="M322 0.5625H270V94.5625H322V0.5625Z" fill="#E0F8FF"/>
<path d="M406 121.562H354V156.562H406V121.562Z" fill="#1278A1"/>
<path d="M406 94.5625H354V121.562H406V94.5625Z" fill="#5DD5F6"/>
<path d="M406 15.5625H354V109.562H406V15.5625Z" fill="#E0F8FF"/>
<path d="M238 121.562H186V172.562H238V121.562Z" fill="#1278A1"/>
<path d="M238 94.5625H186V121.562H238V94.5625Z" fill="#5DD5F6"/>
<path d="M238 15.5625H186V109.562H238V15.5625Z" fill="#E0F8FF"/>
<path d="M154 121.562H102V156.562H154V121.562Z" fill="#1278A1"/>
<path d="M154 94.5625H102V121.562H154V94.5625Z" fill="#5DD5F6"/>
<path d="M154 11.5625H102V105.562H154V11.5625Z" fill="#E0F8FF"/>
<path d="M70 121.562H18V193.562H70V121.562Z" fill="#1278A1"/>
<path d="M70 94.5625H18V121.562H70V94.5625Z" fill="#5DD5F6"/>
<path d="M70 0.5625H18V94.5625H70V0.5625Z" fill="#E0F8FF"/>
</svg>
