<svg width="424" height="81" viewBox="0 0 424 81" fill="none" xmlns="http://www.w3.org/2000/svg">
<path d="M424 0.5625H0V2.5625H424V0.5625Z" fill="#EEEEEE"/>
<path d="M424 26.5625H0V28.5625H424V26.5625Z" fill="#EEEEEE"/>
<path d="M424 52.5625H0V54.5625H424V52.5625Z" fill="#EEEEEE"/>
<path d="M424 78.5625H0V80.5625H424V78.5625Z" fill="#EEEEEE"/>
<path d="M44 5.5625H18V78.5625H44V5.5625Z" fill="#FAE5EF"/>
<path d="M44 41.5625H70V78.5625H44V41.5625Z" fill="#FDA1B9"/>
<path d="M128 28.5625H102V78.5625H128V28.5625Z" fill="#FAE5EF"/>
<path d="M128 62.5625H154V78.5625H128V62.5625Z" fill="#FDA1B9"/>
<path d="M212 16.5625H186V78.5625H212V16.5625Z" fill="#FAE5EF"/>
<path d="M212 70.5625H238V78.5625H212V70.5625Z" fill="#FDA1B9"/>
<path d="M296 41.5625H270V78.5625H296V41.5625Z" fill="#FAE5EF"/>
<path d="M296 28.5625H322V78.5625H296V28.5625Z" fill="#FDA1B9"/>
<path d="M380 65.5625H354V78.5625H380V65.5625Z" fill="#FAE5EF"/>
<path d="M380 75.7134H406V78.5627H380V75.7134Z" fill="#FDA1B9"/>
</svg>
